<svg
                            width="20"
                            height="22"
                            viewBox="0 0 20 22"
                            fill="none"
                            xmlns="http://www.w3.org/2000/svg"
                        >
                            <path
                                d="M5.42855 5.57875C5.42855 8.10348 7.47525 10.1502 9.99998 10.1502C12.5247 10.1502 14.5714 8.10348 14.5714 5.57875C14.5714 3.05402 12.5247 1.00732 9.99998 1.00732"
                                stroke="currentColor"
                                stroke-width="1.8"
                                stroke-linecap="round"
                            />
                            <path
                                d="M2 16.9328C2 15.9495 2.61812 15.0724 3.5441 14.7417V14.7417C7.71891 13.2507 12.2811 13.2507 16.4559 14.7417V14.7417C17.3819 15.0724 18 15.9495 18 16.9328V18.7014C18 19.9185 16.922 20.8535 15.7172 20.6813L13.8184 20.4101C11.2856 20.0483 8.71435 20.0483 6.18162 20.4101L4.28284 20.6813C3.07798 20.8535 2 19.9185 2 18.7014V16.9328Z"
                                stroke="currentColor"
                                stroke-width="1.8"
                            />
                        </svg>