<svg
                            width="20"
                            height="22"
                            viewBox="0 0 20 22"
                            fill="none"
                            xmlns="http://www.w3.org/2000/svg"
                        >
                            <path
                                d="M5.89416 2.31259C7.20149 1.48625 8.75475 1.00732 10.4211 1.00732C15.0719 1.00732 18.8421 4.73828 18.8421 9.34066C18.8421 15.0541 12.1053 21.0073 10.4211 21.0073C8.73684 21.0073 2 15.0541 2 9.34066C2 7.87581 2.38193 6.49924 3.05263 5.30315"
                                stroke="currentColor"
                                stroke-width="1.8"
                                stroke-linecap="round"
                            />
                            <path
                                d="M13.4571 9.77392C13.5365 9.49702 13.579 9.20456 13.579 8.90216C13.579 7.15811 12.1651 5.74427 10.4211 5.74427C8.67702 5.74427 7.26318 7.15811 7.26318 8.90216C7.26318 10.6462 8.67702 12.0601 10.4211 12.0601C10.6633 12.0601 10.8991 12.0328 11.1256 11.9812"
                                stroke="currentColor"
                                stroke-width="1.8"
                                stroke-linecap="round"
                            />
                        </svg>