<svg
                            width="22"
                            height="22"
                            viewBox="0 0 22 22"
                            fill="none"
                            xmlns="http://www.w3.org/2000/svg"
                        >
                            <path
                                d="M6.45241 1.40806C5.45292 0.783702 4.14202 0.887138 3.2983 1.73086L1.86856 3.1606C-0.302899 5.33207 1.73747 10.8931 6.42586 15.5815C11.1142 20.2699 16.6753 22.3102 18.8467 20.1388L20.2765 18.709C21.2635 17.722 21.2374 16.0956 20.2182 15.0764L18.0036 12.8619C16.9844 11.8426 15.358 11.8165 14.371 12.8036L14.0639 13.1107C13.531 13.6436 12.6713 13.6957 12.0713 13.2005C11.4925 12.7229 10.9159 12.208 10.3576 11.6497C9.79933 11.0914 9.28441 10.5149 8.80678 9.93607C8.31161 9.33601 8.36374 8.47631 8.89666 7.9434L9.20375 7.63631C9.98187 6.85819 10.1303 5.68271 9.65898 4.72062"
                                stroke="white"
                                stroke-width="1.8"
                                stroke-linecap="round"
                            />
                        </svg>